<svg width="21" height="20" viewBox="0 0 21 20" fill="none" xmlns="http://www.w3.org/2000/svg">
<path d="M17.5 15.7043C17.357 15.7043 17.2409 15.8204 17.2409 15.9635V16.7409C17.2409 16.8839 17.357 17 17.5 17C17.643 17 17.7591 16.8839 17.7591 16.7409V15.9635C17.7591 15.8204 17.643 15.7043 17.5 15.7043V15.7043ZM17.5 10C17.357 10 17.2409 10.1161 17.2409 10.2591V11.0365C17.2409 11.1796 17.357 11.2957 17.5 11.2957C17.643 11.2957 17.7591 11.1796 17.7591 11.0365V10.2591C17.7591 10.1161 17.643 10 17.5 10V10ZM15.2957 13.5C15.2957 13.357 15.1796 13.2409 15.0365 13.2409H14.2591C14.1161 13.2409 14 13.357 14 13.5C14 13.643 14.1161 13.7591 14.2591 13.7591H15.0365C15.1796 13.7591 15.2957 13.643 15.2957 13.5V13.5ZM20.7409 13.2409H19.9635C19.8204 13.2409 19.7043 13.357 19.7043 13.5C19.7043 13.643 19.8204 13.7591 19.9635 13.7591H20.7409C20.8839 13.7591 21 13.643 21 13.5C21 13.357 20.8839 13.2409 20.7409 13.2409V13.2409ZM15.7584 14.9825C15.6894 14.9825 15.6238 15.0094 15.575 15.0582L15.0248 15.6084C14.976 15.6572 14.949 15.7228 14.949 15.7918C14.949 15.8608 14.976 15.9264 15.0248 15.9752C15.0736 16.024 15.1392 16.051 15.2082 16.051C15.2772 16.051 15.3428 16.024 15.3916 15.9752L15.9418 15.425C16.0428 15.324 16.0428 15.1591 15.9418 15.0582C15.893 15.0094 15.8274 14.9825 15.7584 14.9825V14.9825ZM19.2416 12.0175C19.3106 12.0175 19.3762 11.9906 19.425 11.9418L19.9752 11.3916C20.024 11.3428 20.051 11.2772 20.051 11.2082C20.051 11.1392 20.024 11.0736 19.9752 11.0248C19.9264 10.976 19.8608 10.949 19.7918 10.949C19.7228 10.949 19.6572 10.976 19.6084 11.0248L19.0582 11.575C19.0094 11.6238 18.9825 11.6894 18.9825 11.7584C18.9825 11.8274 19.0094 11.893 19.0582 11.9418C19.107 11.9906 19.1726 12.0175 19.2416 12.0175V12.0175ZM15.3916 11.0248C15.3428 10.976 15.2772 10.949 15.2082 10.949C15.1392 10.949 15.0736 10.976 15.0248 11.0248C14.976 11.0736 14.949 11.1392 14.949 11.2082C14.949 11.2772 14.976 11.3428 15.0248 11.3916L15.575 11.9418C15.6238 11.9906 15.6894 12.0175 15.7584 12.0175C15.8274 12.0175 15.893 11.9906 15.9418 11.9418C15.9906 11.893 16.0175 11.8274 16.0175 11.7584C16.0175 11.6894 15.9906 11.6238 15.9418 11.575L15.3916 11.0248V11.0248ZM19.425 15.0582C19.3762 15.0094 19.3106 14.9825 19.2416 14.9825C19.1726 14.9825 19.107 15.0094 19.0582 15.0582C18.9572 15.1591 18.9572 15.324 19.0582 15.425L19.6084 15.9752C19.6572 16.024 19.7228 16.051 19.7918 16.051C19.8608 16.051 19.9264 16.024 19.9752 15.9752C20.024 15.9264 20.051 15.8608 20.051 15.7918C20.051 15.7228 20.024 15.6572 19.9752 15.6084L19.425 15.0582V15.0582ZM17.5 11.8846C16.6099 11.8846 15.8846 12.6099 15.8846 13.5C15.8846 14.3901 16.6099 15.1154 17.5 15.1154C18.3901 15.1154 19.1154 14.3901 19.1154 13.5C19.1154 12.6099 18.3901 11.8846 17.5 11.8846Z" fill="white"/>
<path d="M2.04734 2.43604C1.48087 3.25464 0.642812 4.69015 0.236182 6.66114C-0.103891 8.3095 -0.0139021 9.71038 0.118431 10.6273C1.00677 11.2754 1.73132 11.4063 2.21905 11.4113C3.35677 11.423 4.64687 10.7644 5.8806 10.7345C6.13578 10.7284 6.39865 10.7363 6.39865 10.7363C6.935 10.7524 7.38191 10.8101 7.70581 10.8643C7.42093 10.7839 2.9152 9.43774 1.986 5.53837C1.69471 4.316 1.84396 3.21661 2.04734 2.43604V2.43604Z" fill="#CECECE"/>
<path d="M0.211121 11.1888C0.415292 12.157 0.871877 13.6445 1.98041 15.1141C4.31426 18.2084 7.76849 18.8778 8.67849 19.025C8.52611 18.1568 8.40409 16.9144 8.57907 15.4418C8.75488 13.9621 9.16787 12.778 9.52134 11.968C7.92582 11.1402 6.67483 11.0534 5.81396 11.1355C4.19489 11.29 3.028 12.1306 1.32302 11.6675C0.828523 11.5332 0.449159 11.3327 0.211141 11.1888L0.211121 11.1888Z" fill="#CECECE"/>
<path d="M2.57916 15.8312C3.32659 15.8072 4.37966 15.6794 5.53786 15.2119C7.76207 14.314 9.01207 12.7129 9.52138 11.9678C9.33633 12.3909 9.16318 12.8522 9.01408 13.3517C8.3506 15.5737 8.44888 17.5912 8.67852 19.0249C7.19508 18.7652 5.14604 18.1454 3.33696 16.5674C3.06021 16.326 2.80837 16.079 2.57916 15.8312V15.8312Z" fill="#D0D0D0"/>
<path d="M2.04741 2.43604C1.61704 3.05756 1.13011 3.89031 0.738045 4.93165C0.152076 6.48799 0.0154325 7.8795 0.00115967 8.83261C0.239817 8.59057 0.480413 8.43831 0.691927 8.3396C2.36527 7.55851 4.37291 9.12134 4.52403 9.24225C4.06202 8.90401 2.33681 7.55709 1.91132 5.17718C1.70352 4.01489 1.88234 3.03496 2.04743 2.43606L2.04741 2.43604Z" fill="white"/>
<path d="M0.211141 11.1884C0.686434 11.7273 1.71189 12.7298 3.328 13.2053C6.50089 14.1388 9.17486 12.2243 9.52132 11.9676C9.08231 12.6253 8.09439 13.913 6.34499 14.8351C4.7897 15.6549 3.35438 15.8054 2.57911 15.831C2.13347 15.3438 1.57995 14.6399 1.09789 13.7037C0.599415 12.7357 0.346424 11.8477 0.211121 11.1884H0.211141Z" fill="#969696"/>
<path d="M8.09415 0C7.91022 0.332441 7.66857 0.866145 7.56907 1.56217C7.49202 2.10132 7.52539 2.56209 7.57586 2.89266C7.91657 2.76932 8.29344 2.6494 8.70426 2.54264C9.15113 2.42652 9.57096 2.34344 9.95548 2.28394C9.83185 1.96274 9.62588 1.53148 9.2803 1.08533C8.86427 0.548142 8.41257 0.204563 8.09413 0L8.09415 0Z" fill="#CECECE"/>
<path d="M16.2331 0.286682C15.923 0.453913 15.4849 0.735554 15.0569 1.18902C14.6217 1.65005 14.3638 2.11185 14.215 2.4342C14.5817 2.51796 14.9801 2.62602 15.4021 2.76636C15.8217 2.90593 16.2036 3.05713 16.546 3.20881C16.6249 2.86841 16.705 2.34221 16.6346 1.70596C16.566 1.0852 16.3806 0.599096 16.2331 0.286682H16.2331Z" fill="#CECECE"/>
<path d="M7.55363 3.35671C7.5019 3.90202 7.48251 4.5747 7.55959 5.33791C7.6417 6.15139 7.81085 6.84451 7.98386 7.39004C8.44636 6.29555 9.01878 5.61134 9.47978 5.1787C9.90027 4.78407 10.3657 4.46966 10.5563 3.84248C10.7028 3.36075 10.6239 2.90295 10.5276 2.58014C10.1342 2.62096 9.69391 2.68985 9.21959 2.80304C8.5737 2.95717 8.01552 3.15745 7.55363 3.35671V3.35671Z" fill="#7C7C7C"/>
<path d="M10.9238 2.54274C10.9858 2.75097 11.0604 3.09571 11.0214 3.51983C11.0065 3.68143 10.9703 4.03848 10.7677 4.42151C10.5118 4.90551 10.2406 4.95775 9.62169 5.67162C9.46291 5.85475 9.34228 6.01105 9.26819 6.11006C10.169 6.56219 11.0699 7.01434 11.9707 7.46649C12.4068 7.23499 14.4073 6.11668 14.7559 4.03142C14.8063 3.73041 14.8291 3.36782 14.7812 2.95143C14.2115 2.78501 13.5059 2.62912 12.6887 2.55637C12.0266 2.49745 11.4312 2.50555 10.9238 2.54278L10.9238 2.54274Z" fill="white"/>
<path d="M16.5635 3.62034C16.5991 3.92281 16.6199 4.2502 16.6171 4.59945C16.6069 5.88376 16.2818 6.94873 15.9604 7.70734C15.959 7.64692 15.9298 6.94601 15.3152 6.54618C14.729 6.16478 14.1094 6.38227 14.0432 6.40682C14.2904 6.13011 14.6125 5.70333 14.8575 5.11818C15.2157 4.26278 15.2308 3.49473 15.2063 3.06366C15.6587 3.24923 16.1111 3.43479 16.5635 3.62036V3.62034Z" fill="#CECECE"/>
<path d="M8.08716 7.81171C8.71712 8.95856 9.34708 10.1054 9.97707 11.2522C10.3884 11.4109 11.0174 11.5991 11.8032 11.6317C12.6323 11.6661 13.3053 11.5137 13.737 11.3801C14.4408 10.2753 15.1446 9.17055 15.8485 8.06577C15.6192 8.12775 15.3186 8.19726 14.9622 8.24833C14.6616 8.29141 14.2934 8.32536 13.8101 8.3232C12.8487 8.31887 12.7985 8.17766 11.9026 8.14784C11.0962 8.12103 11.0921 8.23389 10.1761 8.18897C9.63052 8.16222 9.21964 8.10197 8.85123 8.02161C8.53976 7.95365 8.28019 7.87602 8.08718 7.81173L8.08716 7.81171Z" fill="white"/>
<path d="M9.96507 11.9477C10.4952 12.5846 11.0253 13.2215 11.5554 13.8583C11.0639 14.5545 10.524 15.4335 10.0364 16.4958C9.58798 17.4727 9.28722 18.3794 9.08162 19.1548C8.86734 17.8127 8.75675 15.874 9.3481 13.6953C9.52346 13.0492 9.73772 12.4661 9.96505 11.9477L9.96507 11.9477Z" fill="white"/>
<path d="M13.3453 12.3599C12.6739 13.0569 11.8742 14.0181 11.1425 15.2697C10.3008 16.7093 9.83095 18.0507 9.55896 19.0692C10.558 19.236 11.3783 19.2173 11.9413 19.1679C12.8684 19.0866 13.2477 18.9088 13.5214 18.7131C13.6378 18.6299 13.996 18.3737 14.198 17.9546C14.6322 17.0534 13.9516 16.2137 13.573 14.492C13.4649 14.0005 13.346 13.2759 13.3453 12.3599H13.3453Z" fill="#D0D0D0"/>
<path d="M11.5469 7.90866C11.3157 7.75463 11.0012 7.55329 10.6171 7.3313C10.4112 7.21233 10.2495 7.12444 10.073 7.02874C9.81257 6.8875 9.47202 6.70719 9.0657 6.50385C9.0095 6.61642 8.91685 6.83973 8.91835 7.13424C8.91967 7.3926 8.99285 7.59225 9.04326 7.70328C9.35712 7.69156 9.69802 7.69282 10.062 7.71437C10.6138 7.74706 11.1119 7.82008 11.547 7.90869L11.5469 7.90866Z" fill="white"/>
<path d="M12.3286 7.93569C12.7704 7.68406 13.2552 7.43096 13.7826 7.18692C14.1626 7.01111 14.531 6.85555 14.8847 6.71771C14.9334 6.83396 15.0161 7.07637 14.9827 7.38513C14.9565 7.62628 14.8704 7.8075 14.8111 7.91081C14.4979 7.87513 14.1545 7.85087 13.7848 7.84669C13.2447 7.84054 12.7555 7.87843 12.3286 7.93569V7.93569Z" fill="white"/>
<path d="M10.463 11.8532C10.8193 11.9444 11.2775 12.0286 11.814 12.0469C12.3569 12.0655 12.8245 12.0114 13.1887 11.9435C12.7138 12.4502 12.2389 12.957 11.764 13.4637C11.3303 12.9269 10.8966 12.39 10.463 11.8532V11.8532Z" fill="white"/>
<path d="M12.3187 7.93726C12.5604 7.80028 12.8886 7.62208 13.2877 7.4283C13.5016 7.32443 13.6692 7.24841 13.8521 7.16568C14.122 7.04349 14.4747 6.88818 14.8946 6.7146C14.9426 6.83093 15.0189 7.0603 14.9962 7.35395C14.9763 7.61156 14.8889 7.8054 14.8307 7.91251C14.5185 7.87825 14.1784 7.85498 13.8138 7.8503C13.2611 7.84322 12.759 7.88021 12.3187 7.93728L12.3187 7.93726Z" fill="white"/>
<path d="M7.98388 7.38999C7.73091 6.53707 7.52426 5.48589 7.51294 4.28069C7.50989 3.95641 7.52123 3.64627 7.54322 3.35161C7.99459 3.16075 8.53487 2.96934 9.15636 2.81836C9.65516 2.69719 10.117 2.62372 10.5277 2.58014C10.4425 2.76325 10.2957 3.04458 10.0611 3.3479C9.38192 4.22582 8.71052 4.32736 8.27087 4.84436C7.94422 5.22851 7.6607 5.9418 7.9839 7.39002L7.98388 7.38999Z" fill="#969696"/>
<path d="M14.0942 5.63229C13.7032 5.54368 13.0361 5.33611 12.3806 4.81071C11.3613 3.99378 11.0267 2.93501 10.9236 2.54276C11.4517 2.504 12.0819 2.49637 12.7874 2.56565C13.5643 2.64193 14.2361 2.79218 14.781 2.95141C14.813 3.23443 14.8243 3.60747 14.7522 4.03468C14.6265 4.78035 14.3086 5.32528 14.0942 5.63227V5.63229Z" fill="#969696"/>
<path d="M15.2062 3.06366C15.6586 3.24923 16.111 3.43479 16.5634 3.62036C16.6159 4.0774 16.64 4.63192 16.5833 5.25678C16.4897 6.28822 16.2112 7.12343 15.9603 7.70736C16.0357 7.50329 16.6179 5.8554 15.7163 4.71211C15.5871 4.54832 15.4015 4.36201 15.1336 4.19515C15.1569 4.07076 15.1768 3.9369 15.1909 3.7943C15.2176 3.52528 15.2185 3.27946 15.2062 3.06368L15.2062 3.06366Z" fill="#969696"/>
<path d="M14.215 2.4342C14.359 2.12278 14.5942 1.7033 14.9739 1.27928C15.4273 0.77303 15.9032 0.464948 16.2331 0.286682C16.3729 0.583482 16.5304 1.0014 16.6098 1.5198C16.7193 2.23575 16.6323 2.83279 16.546 3.20879C16.4942 2.70089 16.1675 2.26394 15.7014 2.08139C15.1901 1.88115 14.5972 2.02073 14.215 2.4342V2.4342Z" fill="#969696"/>
<path d="M7.57601 2.89266C7.5249 2.55797 7.49019 2.08208 7.57498 1.52325C7.67782 0.845437 7.914 0.325614 8.09431 0C8.37839 0.182411 8.74183 0.458297 9.09487 0.860411C9.55963 1.38976 9.8152 1.92008 9.95566 2.28394C9.60234 1.8138 8.99443 1.62126 8.45967 1.80221C7.98922 1.9614 7.64614 2.38568 7.57604 2.89266H7.57601Z" fill="#969696"/>
<path d="M11.0476 16.2788C10.1419 17.3581 9.74094 18.4413 9.55896 19.0697C10.0422 18.2114 11.4078 16.0508 13.5099 15.8616C13.6558 15.8485 13.8075 15.8447 13.9648 15.8521C13.8618 15.5629 13.7631 15.2488 13.6747 14.9111C13.6222 14.7104 13.5772 14.5158 13.5384 14.3279C12.951 14.6162 11.9536 15.1992 11.0476 16.2788V16.2788Z" fill="#969696"/>
<path d="M9.242 14.1157C9.0001 15.1968 8.83578 16.5326 8.95011 18.046C8.97948 18.4344 9.0249 18.8044 9.08172 19.1549C9.17204 18.8305 9.27481 18.4935 9.39197 18.146C9.55181 17.6719 9.72136 17.2288 9.89395 16.8175C9.67662 15.9169 9.45931 15.0163 9.242 14.1157V14.1157Z" fill="#969696"/>
<path d="M9.97707 11.2522C9.3471 10.1054 8.71714 8.95856 8.08716 7.81171C8.40817 8.40166 8.78131 8.7288 9.04657 8.91339C10.6938 10.0597 13.1478 9.1663 14.4212 8.70124C15.0632 8.46675 15.5586 8.22048 15.8456 8.06876C15.1427 9.17255 14.4398 10.2763 13.7369 11.3801C13.3138 11.511 12.6626 11.6589 11.8611 11.6337C11.0446 11.608 10.3938 11.413 9.97705 11.2522H9.97707Z" fill="#CECECE"/>
<path d="M10.9238 2.54299C10.9945 2.76859 11.0827 3.15913 11.0159 3.63538C10.9938 3.79374 10.9517 4.15672 10.7104 4.52237C10.5214 4.8088 10.3754 4.90093 10.0313 5.2382C9.8326 5.43294 9.56111 5.72086 9.26819 6.11026C9.59865 6.23816 9.98556 6.35399 10.4241 6.42608C11.9094 6.67024 13.1478 6.27483 13.8194 5.99416C13.9111 5.87361 14.0027 5.75305 14.0944 5.63248C13.4614 5.2812 12.6184 4.71 11.8319 3.80752C11.4471 3.36601 11.1511 2.93159 10.9238 2.54297L10.9238 2.54299Z" fill="#CECECE"/>
<path d="M11.0227 14.0439C10.2809 14.5102 9.39066 14.1751 9.24189 14.1165C9.23574 14.4488 9.23605 14.7901 9.24391 15.1398C9.26635 16.1386 9.34728 17.0736 9.46409 17.9367C9.7765 17.0347 10.2157 16.018 10.8421 14.9599C11.0762 14.5645 11.316 14.1979 11.5554 13.8593C11.5087 13.8032 11.462 13.7471 11.4153 13.691C11.3164 13.8146 11.1882 13.9398 11.0227 14.0439V14.0439Z" fill="#CECECE"/>
<path d="M9.55896 19.0692C9.76515 18.4123 10.2004 17.319 11.1319 16.2334C12.003 15.2183 12.9412 14.6372 13.5384 14.3275C13.4626 13.9455 13.4008 13.5188 13.3689 13.053C13.3523 12.8111 13.3452 12.5797 13.3453 12.3599C12.7555 12.9723 12.1054 13.7479 11.4897 14.7043C10.4369 16.3394 9.87352 17.8988 9.55896 19.0692V19.0692Z" fill="#CECECE"/>
<path d="M8.10015 0C7.99904 0.173769 7.89474 0.381571 7.80322 0.622724C7.65472 1.01397 7.58643 1.37044 7.55487 1.65309C7.57005 1.56943 7.65373 1.15513 8.01232 0.942583C8.42122 0.700234 9.0261 0.815984 9.42626 1.27177C9.23122 1.00077 8.96528 0.686848 8.60931 0.382396C8.43382 0.232284 8.26168 0.106035 8.10012 0L8.10015 0Z" fill="#D0D0D0"/>
<path d="M16.233 0.286682C16.324 0.464123 16.4171 0.67937 16.4929 0.930444C16.6176 1.34359 16.6527 1.71273 16.6565 1.99352C16.6503 1.92051 16.605 1.46833 16.24 1.22005C15.8474 0.952946 15.242 1.02856 14.8246 1.45239C15.0225 1.20903 15.2947 0.923555 15.6575 0.653155C15.8591 0.502878 16.0544 0.382776 16.233 0.286682H16.233Z" fill="#D0D0D0"/>
<path d="M13.7369 11.38C14.2644 10.5516 14.7919 9.72326 15.3193 8.8949C14.8522 9.40721 13.8968 10.3118 12.4028 10.8422C11.434 11.1861 10.5709 11.2547 9.97699 11.2521C10.42 11.4218 11.1227 11.629 12.003 11.635C12.7276 11.64 13.3242 11.5069 13.7369 11.38Z" fill="#969696"/>
</svg>
