<svg width="22" height="22" viewBox="0 0 22 22" fill="none" xmlns="http://www.w3.org/2000/svg">
<path d="M19.75 0.5H2.25C1.28203 0.5 0.5 1.28203 0.5 2.25V19.75C0.5 20.718 1.28203 21.5 2.25 21.5H19.75C20.718 21.5 21.5 20.718 21.5 19.75V2.25C21.5 1.28203 20.718 0.5 19.75 0.5ZM19.9688 19.5312C19.9688 19.7719 19.7719 19.9688 19.5312 19.9688H2.46875C2.22812 19.9688 2.03125 19.7719 2.03125 19.5312V2.46875C2.03125 2.22812 2.22812 2.03125 2.46875 2.03125H19.5312C19.7719 2.03125 19.9688 2.22812 19.9688 2.46875V19.5312Z" fill="white"/>
<path d="M16.8845 7.54912L15.922 6.55928C15.8837 6.51553 15.8235 6.49365 15.7688 6.49365C15.7087 6.49365 15.654 6.51553 15.6157 6.55928L8.94385 13.2804L6.51572 10.8522C6.47197 10.8085 6.41728 10.7866 6.3626 10.7866C6.30791 10.7866 6.25322 10.8085 6.20947 10.8522L5.23604 11.8257C5.14854 11.9132 5.14854 12.0499 5.23604 12.1374L8.29853 15.1999C8.49541 15.3968 8.73603 15.5116 8.93838 15.5116C9.22822 15.5116 9.47978 15.2983 9.57275 15.2108H9.57822L16.8899 7.86084C16.9665 7.76787 16.9665 7.63115 16.8845 7.54912V7.54912Z" fill="white"/>
</svg>
